<svg width="48" height="48" viewBox="0 0 48 48" fill="none" xmlns="http://www.w3.org/2000/svg">
<rect x="1" y="1" width="46" height="46" rx="5" fill="white"/>
<rect x="1" y="1" width="46" height="46" rx="5" stroke="#333333" stroke-width="2"/>
<path fill-rule="evenodd" clip-rule="evenodd" d="M30 24C30 24.4971 29.5971 24.9 29.1 24.9H21.1345L23.7238 27.2513C24.0821 27.5958 24.0933 28.1655 23.7487 28.5238C23.4042 28.8821 22.8345 28.8933 22.4762 28.5488L18.2762 24.6488C18.0997 24.4791 18 24.2448 18 24C18 23.7552 18.0997 23.5209 18.2762 23.3513L22.4762 19.4513C22.8345 19.1067 23.4042 19.1179 23.7487 19.4762C24.0933 19.8345 24.0821 20.4042 23.7238 20.7488L21.1345 23.1L29.1 23.1C29.5971 23.1 30 23.503 30 24Z" fill="#333333"/>
</svg>
