<svg width="48" height="48" viewBox="0 0 48 48" fill="none" xmlns="http://www.w3.org/2000/svg">
<rect x="1" y="1" width="46" height="46" rx="5" fill="white"/>
<rect x="1" y="1" width="46" height="46" rx="5" stroke="#333333" stroke-width="2"/>
<path fill-rule="evenodd" clip-rule="evenodd" d="M18 24C18 23.503 18.4029 23.1 18.9 23.1H26.8655L24.2762 20.7488C23.9179 20.4042 23.9067 19.8345 24.2513 19.4762C24.5958 19.1179 25.1655 19.1067 25.5238 19.4513L29.7238 23.3513C29.9003 23.5209 30 23.7552 30 24C30 24.2448 29.9003 24.4791 29.7238 24.6488L25.5238 28.5488C25.1655 28.8933 24.5958 28.8821 24.2513 28.5238C23.9067 28.1655 23.9179 27.5958 24.2762 27.2513L26.8655 24.9H18.9C18.4029 24.9 18 24.4971 18 24Z" fill="#333333"/>
</svg>
