<svg width="61" height="60" viewBox="0 0 61 60" fill="none" xmlns="http://www.w3.org/2000/svg">
<rect x="1.33398" y="1" width="58" height="58" rx="9" fill="#6BA971"/>
<rect x="1.33398" y="1" width="58" height="58" rx="9" stroke="#262626" stroke-width="2"/>
<path d="M36.709 20.25C35.6735 20.25 34.834 21.0895 34.834 22.125V37.875C34.834 38.9105 35.6735 39.75 36.709 39.75H37.459C38.4945 39.75 39.334 38.9105 39.334 37.875V22.125C39.334 21.0895 38.4945 20.25 37.459 20.25H36.709Z" fill="#262626"/>
<path d="M28.084 26.625C28.084 25.5895 28.9235 24.75 29.959 24.75H30.709C31.7445 24.75 32.584 25.5895 32.584 26.625V37.875C32.584 38.9105 31.7445 39.75 30.709 39.75H29.959C28.9235 39.75 28.084 38.9105 28.084 37.875V26.625Z" fill="#262626"/>
<path d="M21.334 31.125C21.334 30.0895 22.1735 29.25 23.209 29.25H23.959C24.9945 29.25 25.834 30.0895 25.834 31.125V37.875C25.834 38.9105 24.9945 39.75 23.959 39.75H23.209C22.1735 39.75 21.334 38.9105 21.334 37.875V31.125Z" fill="#262626"/>
</svg>
